<svg width="25" height="25" viewBox="0 0 25 25" fill="none" xmlns="http://www.w3.org/2000/svg">
<mask id="mask0_15_636" style="mask-type:alpha" maskUnits="userSpaceOnUse" x="0" y="0" width="25" height="25">
<rect x="0.636597" y="0.354507" width="24" height="24" fill="#D9D9D9"/>
</mask>
<g mask="url(#mask0_15_636)">
<path d="M4.6366 20.3545C4.0866 20.3545 3.61593 20.1588 3.2246 19.7675C2.8326 19.3755 2.6366 18.9045 2.6366 18.3545V6.35451C2.6366 5.80451 2.8326 5.33384 3.2246 4.94251C3.61593 4.55051 4.0866 4.35451 4.6366 4.35451H20.6366C21.1866 4.35451 21.6576 4.55051 22.0496 4.94251C22.4409 5.33384 22.6366 5.80451 22.6366 6.35451V18.3545C22.6366 18.9045 22.4409 19.3755 22.0496 19.7675C21.6576 20.1588 21.1866 20.3545 20.6366 20.3545H4.6366ZM12.6366 13.3545L4.6366 8.35451V18.3545H20.6366V8.35451L12.6366 13.3545ZM12.6366 11.3545L20.6366 6.35451H4.6366L12.6366 11.3545Z" fill="#F0EEFC"/>
</g>
</svg>
