<svg width="24" height="25" viewBox="0 0 24 25" fill="none" xmlns="http://www.w3.org/2000/svg">
<mask id="mask0_15_637" style="mask-type:alpha" maskUnits="userSpaceOnUse" x="0" y="0" width="24" height="25">
<rect y="0.354507" width="24" height="24" fill="#D9D9D9"/>
</mask>
<g mask="url(#mask0_15_637)">
<path d="M4 20.3545C3.45 20.3545 2.97933 20.1588 2.588 19.7675C2.196 19.3755 2 18.9045 2 18.3545V6.35451C2 5.80451 2.196 5.33384 2.588 4.94251C2.97933 4.55051 3.45 4.35451 4 4.35451H20C20.55 4.35451 21.021 4.55051 21.413 4.94251C21.8043 5.33384 22 5.80451 22 6.35451V18.3545C22 18.9045 21.8043 19.3755 21.413 19.7675C21.021 20.1588 20.55 20.3545 20 20.3545H4ZM12 13.3545L4 8.35451V18.3545H20V8.35451L12 13.3545ZM12 11.3545L20 6.35451H4L12 11.3545Z" fill="#1F2028"/>
</g>
</svg>
